<svg xmlns="http://www.w3.org/2000/svg" version="1.1" xmlns:xlink="http://www.w3.org/1999/xlink" xmlns:svgjs="http://svgjs.dev/svgjs" width="1050" height="620" preserveAspectRatio="none" viewBox="0 0 1050 620"><g mask="url(&quot;#SvgjsMask1015&quot;)" fill="none"><rect width="1050" height="620" x="0" y="0" fill="rgba(5, 13, 63, 1)"></rect><path d="M65.23 -50.74L130.18 -13.24L130.18 61.76L65.23 99.26L0.28 61.76L0.28 -13.24zM65.23 174.26L130.18 211.76L130.18 286.76L65.23 324.26L0.28 286.76L0.28 211.76zM130.18 286.76L195.14 324.26L195.14 399.26L130.18 436.76L65.23 399.26L65.23 324.26zM130.18 511.76L195.14 549.26L195.14 624.26L130.18 661.76L65.23 624.26L65.23 549.26zM195.14 624.26L260.09 661.76L260.09 736.76L195.14 774.26L130.18 736.76L130.18 661.76zM325.05 174.26L390 211.76L390 286.76L325.05 324.26L260.09 286.76L260.09 211.76zM454.95 -50.74L519.91 -13.24L519.91 61.76L454.95 99.26L390 61.76L390 -13.24zM519.91 61.76L584.86 99.26L584.86 174.26L519.91 211.76L454.95 174.26L454.95 99.26zM649.81 61.76L714.77 99.26L714.77 174.26L649.81 211.76L584.86 174.26L584.86 99.26zM649.81 511.76L714.77 549.26L714.77 624.26L649.81 661.76L584.86 624.26L584.86 549.26zM779.72 61.76L844.68 99.26L844.68 174.26L779.72 211.76L714.77 174.26L714.77 99.26zM714.77 624.26L779.72 661.76L779.72 736.76L714.77 774.26L649.81 736.76L649.81 661.76zM844.67 624.26L909.63 661.76L909.63 736.76L844.67 774.26L779.72 736.76L779.72 661.76zM974.58 -50.74L1039.54 -13.24L1039.54 61.76L974.58 99.26L909.63 61.76L909.63 -13.24zM1039.54 511.76L1104.49 549.26L1104.49 624.26L1039.54 661.76L974.58 624.26L974.58 549.26z" stroke="rgba(251, 132, 40, 0.64)" stroke-width="2"></path><path d="M57.73 -50.74 a7.5 7.5 0 1 0 15 0 a7.5 7.5 0 1 0 -15 0zM122.68 -13.24 a7.5 7.5 0 1 0 15 0 a7.5 7.5 0 1 0 -15 0zM122.68 61.76 a7.5 7.5 0 1 0 15 0 a7.5 7.5 0 1 0 -15 0zM57.73 99.26 a7.5 7.5 0 1 0 15 0 a7.5 7.5 0 1 0 -15 0zM-7.22 61.76 a7.5 7.5 0 1 0 15 0 a7.5 7.5 0 1 0 -15 0zM-7.22 -13.24 a7.5 7.5 0 1 0 15 0 a7.5 7.5 0 1 0 -15 0zM57.73 174.26 a7.5 7.5 0 1 0 15 0 a7.5 7.5 0 1 0 -15 0zM122.68 211.76 a7.5 7.5 0 1 0 15 0 a7.5 7.5 0 1 0 -15 0zM122.68 286.76 a7.5 7.5 0 1 0 15 0 a7.5 7.5 0 1 0 -15 0zM57.73 324.26 a7.5 7.5 0 1 0 15 0 a7.5 7.5 0 1 0 -15 0zM-7.22 286.76 a7.5 7.5 0 1 0 15 0 a7.5 7.5 0 1 0 -15 0zM-7.22 211.76 a7.5 7.5 0 1 0 15 0 a7.5 7.5 0 1 0 -15 0zM187.64 324.26 a7.5 7.5 0 1 0 15 0 a7.5 7.5 0 1 0 -15 0zM187.64 399.26 a7.5 7.5 0 1 0 15 0 a7.5 7.5 0 1 0 -15 0zM122.68 436.76 a7.5 7.5 0 1 0 15 0 a7.5 7.5 0 1 0 -15 0zM57.73 399.26 a7.5 7.5 0 1 0 15 0 a7.5 7.5 0 1 0 -15 0zM122.68 511.76 a7.5 7.5 0 1 0 15 0 a7.5 7.5 0 1 0 -15 0zM187.64 549.26 a7.5 7.5 0 1 0 15 0 a7.5 7.5 0 1 0 -15 0zM187.64 624.26 a7.5 7.5 0 1 0 15 0 a7.5 7.5 0 1 0 -15 0zM122.68 661.76 a7.5 7.5 0 1 0 15 0 a7.5 7.5 0 1 0 -15 0zM57.73 624.26 a7.5 7.5 0 1 0 15 0 a7.5 7.5 0 1 0 -15 0zM57.73 549.26 a7.5 7.5 0 1 0 15 0 a7.5 7.5 0 1 0 -15 0zM252.59 661.76 a7.5 7.5 0 1 0 15 0 a7.5 7.5 0 1 0 -15 0zM252.59 736.76 a7.5 7.5 0 1 0 15 0 a7.5 7.5 0 1 0 -15 0zM187.64 774.26 a7.5 7.5 0 1 0 15 0 a7.5 7.5 0 1 0 -15 0zM122.68 736.76 a7.5 7.5 0 1 0 15 0 a7.5 7.5 0 1 0 -15 0zM317.55 174.26 a7.5 7.5 0 1 0 15 0 a7.5 7.5 0 1 0 -15 0zM382.5 211.76 a7.5 7.5 0 1 0 15 0 a7.5 7.5 0 1 0 -15 0zM382.5 286.76 a7.5 7.5 0 1 0 15 0 a7.5 7.5 0 1 0 -15 0zM317.55 324.26 a7.5 7.5 0 1 0 15 0 a7.5 7.5 0 1 0 -15 0zM252.59 286.76 a7.5 7.5 0 1 0 15 0 a7.5 7.5 0 1 0 -15 0zM252.59 211.76 a7.5 7.5 0 1 0 15 0 a7.5 7.5 0 1 0 -15 0zM447.45 -50.74 a7.5 7.5 0 1 0 15 0 a7.5 7.5 0 1 0 -15 0zM512.41 -13.24 a7.5 7.5 0 1 0 15 0 a7.5 7.5 0 1 0 -15 0zM512.41 61.76 a7.5 7.5 0 1 0 15 0 a7.5 7.5 0 1 0 -15 0zM447.45 99.26 a7.5 7.5 0 1 0 15 0 a7.5 7.5 0 1 0 -15 0zM382.5 61.76 a7.5 7.5 0 1 0 15 0 a7.5 7.5 0 1 0 -15 0zM382.5 -13.24 a7.5 7.5 0 1 0 15 0 a7.5 7.5 0 1 0 -15 0zM577.36 99.26 a7.5 7.5 0 1 0 15 0 a7.5 7.5 0 1 0 -15 0zM577.36 174.26 a7.5 7.5 0 1 0 15 0 a7.5 7.5 0 1 0 -15 0zM512.41 211.76 a7.5 7.5 0 1 0 15 0 a7.5 7.5 0 1 0 -15 0zM447.45 174.26 a7.5 7.5 0 1 0 15 0 a7.5 7.5 0 1 0 -15 0zM642.31 61.76 a7.5 7.5 0 1 0 15 0 a7.5 7.5 0 1 0 -15 0zM707.27 99.26 a7.5 7.5 0 1 0 15 0 a7.5 7.5 0 1 0 -15 0zM707.27 174.26 a7.5 7.5 0 1 0 15 0 a7.5 7.5 0 1 0 -15 0zM642.31 211.76 a7.5 7.5 0 1 0 15 0 a7.5 7.5 0 1 0 -15 0zM642.31 511.76 a7.5 7.5 0 1 0 15 0 a7.5 7.5 0 1 0 -15 0zM707.27 549.26 a7.5 7.5 0 1 0 15 0 a7.5 7.5 0 1 0 -15 0zM707.27 624.26 a7.5 7.5 0 1 0 15 0 a7.5 7.5 0 1 0 -15 0zM642.31 661.76 a7.5 7.5 0 1 0 15 0 a7.5 7.5 0 1 0 -15 0zM577.36 624.26 a7.5 7.5 0 1 0 15 0 a7.5 7.5 0 1 0 -15 0zM577.36 549.26 a7.5 7.5 0 1 0 15 0 a7.5 7.5 0 1 0 -15 0zM772.22 61.76 a7.5 7.5 0 1 0 15 0 a7.5 7.5 0 1 0 -15 0zM837.18 99.26 a7.5 7.5 0 1 0 15 0 a7.5 7.5 0 1 0 -15 0zM837.18 174.26 a7.5 7.5 0 1 0 15 0 a7.5 7.5 0 1 0 -15 0zM772.22 211.76 a7.5 7.5 0 1 0 15 0 a7.5 7.5 0 1 0 -15 0zM772.22 661.76 a7.5 7.5 0 1 0 15 0 a7.5 7.5 0 1 0 -15 0zM772.22 736.76 a7.5 7.5 0 1 0 15 0 a7.5 7.5 0 1 0 -15 0zM707.27 774.26 a7.5 7.5 0 1 0 15 0 a7.5 7.5 0 1 0 -15 0zM642.31 736.76 a7.5 7.5 0 1 0 15 0 a7.5 7.5 0 1 0 -15 0zM837.17 624.26 a7.5 7.5 0 1 0 15 0 a7.5 7.5 0 1 0 -15 0zM902.13 661.76 a7.5 7.5 0 1 0 15 0 a7.5 7.5 0 1 0 -15 0zM902.13 736.76 a7.5 7.5 0 1 0 15 0 a7.5 7.5 0 1 0 -15 0zM837.17 774.26 a7.5 7.5 0 1 0 15 0 a7.5 7.5 0 1 0 -15 0zM967.08 -50.74 a7.5 7.5 0 1 0 15 0 a7.5 7.5 0 1 0 -15 0zM1032.04 -13.24 a7.5 7.5 0 1 0 15 0 a7.5 7.5 0 1 0 -15 0zM1032.04 61.76 a7.5 7.5 0 1 0 15 0 a7.5 7.5 0 1 0 -15 0zM967.08 99.26 a7.5 7.5 0 1 0 15 0 a7.5 7.5 0 1 0 -15 0zM902.13 61.76 a7.5 7.5 0 1 0 15 0 a7.5 7.5 0 1 0 -15 0zM902.13 -13.24 a7.5 7.5 0 1 0 15 0 a7.5 7.5 0 1 0 -15 0zM1032.04 511.76 a7.5 7.5 0 1 0 15 0 a7.5 7.5 0 1 0 -15 0zM1096.99 549.26 a7.5 7.5 0 1 0 15 0 a7.5 7.5 0 1 0 -15 0zM1096.99 624.26 a7.5 7.5 0 1 0 15 0 a7.5 7.5 0 1 0 -15 0zM1032.04 661.76 a7.5 7.5 0 1 0 15 0 a7.5 7.5 0 1 0 -15 0zM967.08 624.26 a7.5 7.5 0 1 0 15 0 a7.5 7.5 0 1 0 -15 0zM967.08 549.26 a7.5 7.5 0 1 0 15 0 a7.5 7.5 0 1 0 -15 0z" fill="rgba(251, 132, 40, 0.64)"></path><path d="M56.09 74.73L99.4 99.73L99.4 149.73L56.09 174.73L12.79 149.73L12.79 99.73zM12.79 149.73L56.09 174.73L56.09 224.73L12.79 249.73L-30.51 224.73L-30.51 174.73zM56.09 224.73L99.4 249.73L99.4 299.73L56.09 324.73L12.79 299.73L12.79 249.73zM56.09 374.73L99.4 399.73L99.4 449.73L56.09 474.73L12.79 449.73L12.79 399.73zM12.79 449.73L56.09 474.73L56.09 524.73L12.79 549.73L-30.51 524.73L-30.51 474.73zM56.09 524.73L99.4 549.73L99.4 599.73L56.09 624.73L12.79 599.73L12.79 549.73zM142.7 74.73L186 99.73L186 149.73L142.7 174.73L99.4 149.73L99.4 99.73zM142.7 524.73L186 549.73L186 599.73L142.7 624.73L99.4 599.73L99.4 549.73zM186 -0.27L229.3 24.73L229.3 74.73L186 99.73L142.7 74.73L142.7 24.73zM229.3 74.73L272.61 99.73L272.61 149.73L229.3 174.73L186 149.73L186 99.73zM186 149.73L229.3 174.73L229.3 224.73L186 249.73L142.7 224.73L142.7 174.73zM229.3 224.73L272.61 249.73L272.61 299.73L229.3 324.73L186 299.73L186 249.73zM186 299.73L229.3 324.73L229.3 374.73L186 399.73L142.7 374.73L142.7 324.73zM229.3 374.73L272.61 399.73L272.61 449.73L229.3 474.73L186 449.73L186 399.73zM186 449.73L229.3 474.73L229.3 524.73L186 549.73L142.7 524.73L142.7 474.73zM186 599.73L229.3 624.73L229.3 674.73L186 699.73L142.7 674.73L142.7 624.73zM272.61 -0.27L315.91 24.73L315.91 74.73L272.61 99.73L229.3 74.73L229.3 24.73zM315.91 224.73L359.21 249.73L359.21 299.73L315.91 324.73L272.61 299.73L272.61 249.73zM272.61 599.73L315.91 624.73L315.91 674.73L272.61 699.73L229.3 674.73L229.3 624.73zM359.21 -0.27L402.51 24.73L402.51 74.73L359.21 99.73L315.91 74.73L315.91 24.73zM359.21 299.73L402.51 324.73L402.51 374.73L359.21 399.73L315.91 374.73L315.91 324.73zM402.51 374.73L445.82 399.73L445.82 449.73L402.51 474.73L359.21 449.73L359.21 399.73zM359.21 449.73L402.51 474.73L402.51 524.73L359.21 549.73L315.91 524.73L315.91 474.73zM359.21 599.73L402.51 624.73L402.51 674.73L359.21 699.73L315.91 674.73L315.91 624.73zM445.82 149.73L489.12 174.73L489.12 224.73L445.82 249.73L402.51 224.73L402.51 174.73zM489.12 224.73L532.42 249.73L532.42 299.73L489.12 324.73L445.82 299.73L445.82 249.73zM575.72 374.73L619.02 399.73L619.02 449.73L575.72 474.73L532.42 449.73L532.42 399.73zM532.42 449.73L575.72 474.73L575.72 524.73L532.42 549.73L489.12 524.73L489.12 474.73zM575.72 524.73L619.02 549.73L619.02 599.73L575.72 624.73L532.42 599.73L532.42 549.73zM532.42 599.73L575.72 624.73L575.72 674.73L532.42 699.73L489.12 674.73L489.12 624.73zM662.33 74.73L705.63 99.73L705.63 149.73L662.33 174.73L619.02 149.73L619.02 99.73zM619.02 149.73L662.33 174.73L662.33 224.73L619.02 249.73L575.72 224.73L575.72 174.73zM662.33 224.73L705.63 249.73L705.63 299.73L662.33 324.73L619.02 299.73L619.02 249.73zM619.02 299.73L662.33 324.73L662.33 374.73L619.02 399.73L575.72 374.73L575.72 324.73zM662.33 374.73L705.63 399.73L705.63 449.73L662.33 474.73L619.02 449.73L619.02 399.73zM619.02 449.73L662.33 474.73L662.33 524.73L619.02 549.73L575.72 524.73L575.72 474.73zM662.33 524.73L705.63 549.73L705.63 599.73L662.33 624.73L619.02 599.73L619.02 549.73zM619.02 599.73L662.33 624.73L662.33 674.73L619.02 699.73L575.72 674.73L575.72 624.73zM705.63 -0.27L748.93 24.73L748.93 74.73L705.63 99.73L662.33 74.73L662.33 24.73zM748.93 74.73L792.24 99.73L792.24 149.73L748.93 174.73L705.63 149.73L705.63 99.73zM705.63 449.73L748.93 474.73L748.93 524.73L705.63 549.73L662.33 524.73L662.33 474.73zM748.93 524.73L792.24 549.73L792.24 599.73L748.93 624.73L705.63 599.73L705.63 549.73zM705.63 599.73L748.93 624.73L748.93 674.73L705.63 699.73L662.33 674.73L662.33 624.73zM792.24 299.73L835.54 324.73L835.54 374.73L792.24 399.73L748.93 374.73L748.93 324.73zM835.54 374.73L878.84 399.73L878.84 449.73L835.54 474.73L792.24 449.73L792.24 399.73zM792.24 599.73L835.54 624.73L835.54 674.73L792.24 699.73L748.93 674.73L748.93 624.73zM922.14 74.73L965.45 99.73L965.45 149.73L922.14 174.73L878.84 149.73L878.84 99.73zM878.84 449.73L922.14 474.73L922.14 524.73L878.84 549.73L835.54 524.73L835.54 474.73zM922.14 524.73L965.45 549.73L965.45 599.73L922.14 624.73L878.84 599.73L878.84 549.73zM1008.75 74.73L1052.05 99.73L1052.05 149.73L1008.75 174.73L965.45 149.73L965.45 99.73zM1008.75 224.73L1052.05 249.73L1052.05 299.73L1008.75 324.73L965.45 299.73L965.45 249.73zM965.45 449.73L1008.75 474.73L1008.75 524.73L965.45 549.73L922.14 524.73L922.14 474.73zM965.45 599.73L1008.75 624.73L1008.75 674.73L965.45 699.73L922.14 674.73L922.14 624.73zM1095.35 74.73L1138.65 99.73L1138.65 149.73L1095.35 174.73L1052.05 149.73L1052.05 99.73zM1052.05 149.73L1095.35 174.73L1095.35 224.73L1052.05 249.73L1008.75 224.73L1008.75 174.73zM1095.35 224.73L1138.65 249.73L1138.65 299.73L1095.35 324.73L1052.05 299.73L1052.05 249.73zM1095.35 524.73L1138.65 549.73L1138.65 599.73L1095.35 624.73L1052.05 599.73L1052.05 549.73zM1052.05 599.73L1095.35 624.73L1095.35 674.73L1052.05 699.73L1008.75 674.73L1008.75 624.73z" stroke="rgba(19, 52, 251, 1)" stroke-width="2"></path></g><defs><mask id="SvgjsMask1015"><rect width="1050" height="620" fill="#ffffff"></rect></mask></defs></svg>